<?xml version="1.0" encoding="iso-8859-1"?>
<!-- Generator: Adobe Illustrator 19.0.0, SVG Export Plug-In . SVG Version: 6.00 Build 0)  -->
<svg version="1.1" id="Layer_1" xmlns="http://www.w3.org/2000/svg" xmlns:xlink="http://www.w3.org/1999/xlink" x="0px" y="0px"
	 viewBox="0 0 512 512" style="enable-background:new 0 0 512 512;" xml:space="preserve">
<g>
	<g>
		<path d="M501.799,10.201C495.22,3.623,486.473,0,477.17,0H296.392c-9.305,0-18.052,3.623-24.63,10.202
			c-13.578,13.58-13.578,35.678,0,49.258l59.657,59.656L119.117,331.42l-59.657-59.657c-13.58-13.579-35.678-13.58-49.258,0.001
			C3.623,278.342,0,287.089,0,296.392V477.17c0,9.304,3.623,18.051,10.201,24.629C16.781,508.377,25.527,512,34.83,512h180.778
			c9.305,0,18.052-3.623,24.63-10.201c13.579-13.581,13.579-35.679,0-49.259l-59.657-59.656L392.883,180.58l59.657,59.657
			c13.58,13.579,35.677,13.579,49.258,0c6.578-6.578,10.201-15.325,10.201-24.629V34.83C512,25.527,508.377,16.78,501.799,10.201z
			 M491.603,215.608c0,3.855-1.501,7.48-4.227,10.205c-5.628,5.628-14.784,5.628-20.412,0l-66.869-66.869
			c-1.913-1.912-4.507-2.987-7.212-2.987s-5.299,1.075-7.212,2.987L158.944,385.671c-1.912,1.913-2.987,4.507-2.987,7.212
			s1.075,5.299,2.987,7.212l66.869,66.869c5.627,5.627,5.627,14.784,0,20.411c-2.726,2.726-6.35,4.228-10.205,4.228H34.83
			c-3.854,0-7.479-1.501-10.204-4.227c-2.726-2.725-4.228-6.35-4.228-10.205V296.392c0-3.855,1.501-7.479,4.227-10.205
			c2.813-2.814,6.509-4.22,10.205-4.22c3.695,0,7.392,1.407,10.205,4.22l66.869,66.869c1.912,1.912,4.506,2.987,7.212,2.987
			c2.706,0,5.299-1.075,7.212-2.987l226.727-226.726c1.912-1.913,2.987-4.507,2.987-7.212s-1.075-5.298-2.987-7.212l-66.869-66.868
			c-5.627-5.628-5.627-14.785,0-20.412c2.725-2.726,6.35-4.228,10.205-4.228H477.17c3.855,0,7.48,1.501,10.205,4.227
			c2.726,2.725,4.228,6.35,4.228,10.205V215.608z"/>
	</g>
</g>
<g>
	<g>
		<path d="M44.107,358.976c-5.633,0-10.199,4.567-10.199,10.199v2.201c0,5.632,4.566,10.199,10.199,10.199
			c5.633,0,10.199-4.566,10.199-10.199v-2.201C54.307,363.543,49.74,358.976,44.107,358.976z"/>
	</g>
</g>
<g>
	<g>
		<path d="M43.857,399.997c-5.633,0-10.199,4.567-10.199,10.199v57.947c0,5.632,4.566,10.199,10.199,10.199
			c5.633,0,10.199-4.567,10.199-10.199v-57.947C54.056,404.565,49.49,399.997,43.857,399.997z"/>
	</g>
</g>
<g>
</g>
<g>
</g>
<g>
</g>
<g>
</g>
<g>
</g>
<g>
</g>
<g>
</g>
<g>
</g>
<g>
</g>
<g>
</g>
<g>
</g>
<g>
</g>
<g>
</g>
<g>
</g>
<g>
</g>
</svg>
