<?xml version="1.0" encoding="utf-8"?>
<!-- Generator: Adobe Illustrator 19.1.0, SVG Export Plug-In . SVG Version: 6.00 Build 0)  -->
<svg version="1.1" id="Layer_1" xmlns="http://www.w3.org/2000/svg" xmlns:xlink="http://www.w3.org/1999/xlink" x="0px" y="0px"
	 viewBox="0 0 64 64" enable-background="new 0 0 64 64" xml:space="preserve">
<g id="Microphone-louder">
	<path d="M27.0426006,21.7178001h4v4c0,0.5522995,0.4478092,1,0.9999981,1c0.5522995,0,1-0.4477005,1-1v-4h4
		c0.5522995,0,1-0.4477005,1-1c0-0.5522003-0.4477005-1-1-1h-4v-4c0-0.5522003-0.4477005-1-1-1
		c-0.5521889,0-0.9999981,0.4477997-0.9999981,1v4h-4c-0.5521908,0-1,0.4477997-1,1
		C26.0426006,21.2700996,26.4904099,21.7178001,27.0426006,21.7178001z"/>
	<path d="M32,40c6.0654984,0,11-5.0653992,11-11.2919998V11.2919998C43,5.0654998,38.0654984,0,32,0
		c-6.0653992,0-11,5.0654998-11,11.2919998v17.4160004C21,34.9346008,25.9346008,40,32,40z M23,11.2919998
		C23,6.1684999,27.0375996,2,32,2c4.96241,0,9,4.1684999,9,9.2919998v17.4160004C41,33.8316002,36.96241,38,32,38
		c-4.9624004,0-9-4.1683998-9-9.2919998V11.2919998z"/>
	<path d="M50,25c-0.5522003,0-1,0.4477997-1,1v3.6333008C49,39.2094994,41.3740997,47,32,47
		c-9.3740005,0-17-7.7905006-17-17.3666992V26c0-0.5522003-0.4476995-1-1-1c-0.5521994,0-0.999999,0.4477997-0.999999,1v3.6333008
		c0,10.3348007,7.9894075,18.780098,18,19.3149986V62H21c-0.5522003,0-1,0.4477997-1,1c0,0.5522995,0.4477997,1,1,1h22
		c0.5522995,0,1-0.4477005,1-1c0-0.5522003-0.4477005-1-1-1H33V48.9482994c10.0107002-0.5349007,18-8.9801979,18-19.3149986V26
		C51,25.4477997,50.5522995,25,50,25z"/>
</g>
<g>
</g>
<g>
</g>
<g>
</g>
<g>
</g>
<g>
</g>
<g>
</g>
<g>
</g>
<g>
</g>
<g>
</g>
<g>
</g>
<g>
</g>
<g>
</g>
<g>
</g>
<g>
</g>
<g>
</g>
</svg>
